
<svg id="marca" xmlns="http://www.w3.org/2000/svg" width="164.188" height="40.875" viewBox="0 0 164.188 40.875">
  <defs>
    <style>
      .cls-1 {
        fill: #c00;
      }

      .cls-1, .cls-2 {
        fill-rule: evenodd;
      }

      .cls-2 {
        fill: #fff;
      }
    </style>
  </defs>
  <path id="Forma_1_copiar" data-name="Forma 1 copiar" class="cls-1" d="M47.716,26.522a5.978,5.978,0,0,0,.527-2.9c0-.094,0-0.437,0-0.527,0-2.639-2.633-4.74-4.22-4.747-0.532,0-6.329,0-6.329,0L27.409,8.061H41.386c3.1,0,8.1.563,10.285,4.747,0.912,1.482,1.207,5.761,1.212,7.987,0.021,0.726,0,5.367,0,5.747C52.34,26.541,48.1,26.52,47.716,26.522Z" transform="translate(-26.406 -8.063)"/>
  <path id="Forma_1" data-name="Forma 1" class="cls-1" d="M36.694,48.939L26.673,38.653s16.068,0,16.351,0c1.582,0,4.225-2.639,4.22-5.274,0-.094,0-0.437,0-0.527,0-2.639-2.633-4.74-4.22-4.747-0.532,0-6.329,0-6.329,0L26.409,17.819H43.023a13.771,13.771,0,0,1,10.022,4.747c4.285,4.547,4.483,8.967,4.483,8.967,0.005,0.761,0,3.428,0,3.428a13.45,13.45,0,0,1-3.956,8.967c-4.647,4.753-8.971,5.01-10.549,5.011C42.756,48.94,36.694,48.939,36.694,48.939Z" transform="translate(-26.406 -8.063)"/>
  <path id="Bracael" class="cls-2" d="M91.33,32.711c0,2.01-1.41,3.18-3.72,3.18H82.99v-6.51h4.5C89.77,29.381,91.33,30.641,91.33,32.711Zm-0.54-9.09c0,1.92-1.35,2.97-3.57,2.97H82.99v-5.97h4.23C89.44,20.622,90.79,21.732,90.79,23.622Zm3.96,9.45a5.185,5.185,0,0,0-4.02-5.1,4.878,4.878,0,0,0,3.54-4.77c0-2.94-2.34-5.37-6.75-5.37H79.57V38.681h8.34C92.169,38.681,94.749,36.251,94.749,33.071Zm7.141-3.09c0-3.51,1.559-4.56,4.079-4.56h0.87v-3.54a5.382,5.382,0,0,0-4.949,2.67v-2.4H98.47V38.681h3.42v-8.7Zm6.959,0.36c0,5.1,3.45,8.61,7.74,8.61a7.115,7.115,0,0,0,5.79-2.73v2.46h3.45V22.152h-3.45v2.4a7.036,7.036,0,0,0-5.73-2.67C112.3,21.882,108.849,25.241,108.849,30.341Zm13.53,0.06c0,3.57-2.43,5.58-5.01,5.58-2.55,0-5.01-2.07-5.01-5.64s2.46-5.49,5.01-5.49C119.949,24.851,122.379,26.861,122.379,30.4Zm6.81,0c0,5.19,3.36,8.55,8.1,8.55a7.423,7.423,0,0,0,7.619-5.49h-3.689a3.775,3.775,0,0,1-3.93,2.61c-2.76,0-4.59-2.04-4.59-5.67,0-3.6,1.83-5.64,4.59-5.64a3.863,3.863,0,0,1,3.93,2.61h3.689c-0.929-3.48-3.569-5.49-7.619-5.49C132.549,21.882,129.189,25.241,129.189,30.4Zm18-.06c0,5.1,3.45,8.61,7.74,8.61a7.114,7.114,0,0,0,5.789-2.73v2.46h3.45V22.152h-3.45v2.4a7.036,7.036,0,0,0-5.729-2.67C150.639,21.882,147.189,25.241,147.189,30.341Zm13.529,0.06c0,3.57-2.43,5.58-5.009,5.58-2.55,0-5.01-2.07-5.01-5.64s2.46-5.49,5.01-5.49C158.288,24.851,160.718,26.861,160.718,30.4Zm14.91-5.64a4.292,4.292,0,0,1,4.62,4.17H171.1A4.5,4.5,0,0,1,175.628,24.761Zm7.74,9h-3.69a4,4,0,0,1-3.9,2.31,4.546,4.546,0,0,1-4.709-4.38H183.7a10.548,10.548,0,0,0,.12-1.68,7.709,7.709,0,0,0-8.04-8.13c-4.889,0-8.249,3.33-8.249,8.52s3.51,8.55,8.249,8.55A7.553,7.553,0,0,0,183.368,33.761Zm3.81,4.92h3.42v-22.2h-3.42v22.2Z" transform="translate(-26.406 -8.063)"/>
</svg>
